<svg width="14" height="17" viewBox="0 0 14 17"
    xmlns="http://www.w3.org/2000/svg">
    <path fill-rule="evenodd" clip-rule="evenodd" d="M9.24611 0.273889L9.91667 0.944444H12.2778C12.7972 0.944444 13.2222 1.36944 13.2222 1.88889C13.2222 2.40833 12.7972 2.83333 12.2778 2.83333H0.944444C0.425 2.83333 0 2.40833 0 1.88889C0 1.36944 0.425 0.944444 0.944444 0.944444H3.30556L3.97611 0.273889C4.14611 0.103889 4.39167 0 4.63722 0H8.585C8.83056 0 9.07611 0.103889 9.24611 0.273889ZM0.944444 15.1111C0.944444 16.15 1.79444 17 2.83333 17H10.3889C11.4278 17 12.2778 16.15 12.2778 15.1111V5.66667C12.2778 4.62778 11.4278 3.77778 10.3889 3.77778H2.83333C1.79444 3.77778 0.944444 4.62778 0.944444 5.66667V15.1111ZM3.93834 7.71611C4.30667 7.34778 4.90167 7.34778 5.27 7.71611L6.61111 9.05722L7.95222 7.71611C8.32056 7.34778 8.91556 7.34778 9.28389 7.71611C9.65222 8.08445 9.65222 8.67945 9.28389 9.04778L7.94278 10.3889L9.28389 11.73C9.65222 12.0983 9.65222 12.6933 9.28389 13.0617C8.91556 13.43 8.32056 13.43 7.95222 13.0617L6.61111 11.7206L5.27 13.0617C4.90167 13.43 4.30667 13.43 3.93834 13.0617C3.76149 12.8852 3.6621 12.6457 3.6621 12.3958C3.6621 12.146 3.76149 11.9065 3.93834 11.73L5.27945 10.3889L3.93834 9.04778C3.57 8.68889 3.57 8.08445 3.93834 7.71611Z" fill="#DC3B00"/>
</svg>
