<svg width="17" height="17" viewBox="0 0 17 17"
    xmlns="http://www.w3.org/2000/svg">
    <path d="M8.85071 1.51355C7.24639 -0.0907657 4.84391 -0.418014 2.91234 0.523823L5.80969 3.42117C6.12097 3.73246 6.12097 4.2353 5.80969 4.54659L4.5406 5.81568C4.22932 6.13494 3.72647 6.13494 3.41519 5.81568L0.517837 2.91833C-0.416019 4.85787 -0.08877 7.2444 1.51555 8.84871C3.00014 10.3333 5.17116 10.7244 7.01492 10.03L13.3683 16.3834C14.1905 17.2055 15.5154 17.2055 16.3295 16.3834C17.1517 15.5613 17.1517 14.2363 16.3295 13.4222L10.0081 7.09274C10.7424 5.22503 10.3592 3.02209 8.85071 1.51355Z" fill="white"/>
</svg>
