<svg width="21" height="17" viewBox="0 0 21 17"
    xmlns="http://www.w3.org/2000/svg">
    <path fill-rule="evenodd" clip-rule="evenodd" d="M1.89099 0H18.9099C19.9499 0 20.8009 0.850945 20.8009 1.89099V15.109C20.8009 16.1491 19.9499 17 18.9099 17H1.87208C0.841491 17 0 16.1585 0 15.1279V12.282C0 11.762 0.425473 11.3365 0.945495 11.3365C1.46552 11.3365 1.89099 11.762 1.89099 12.282V14.1919C1.89099 14.7119 2.31646 15.1374 2.83648 15.1374H17.9644C18.4844 15.1374 18.9099 14.7119 18.9099 14.1919V2.81758C18.9099 2.29755 18.4844 1.87208 17.9644 1.87208H2.83648C2.31646 1.87208 1.89099 2.29755 1.89099 2.81758V4.71802C1.89099 5.23804 1.46552 5.66352 0.945495 5.66352C0.425473 5.66352 0 5.23804 0 4.71802V1.89099C0 0.850945 0.850945 0 1.89099 0ZM12.8966 8.84037L10.2586 11.4783C9.96552 11.7714 9.45495 11.5634 9.45495 11.1379V9.44549H0.945495C0.425473 9.44549 0 9.02001 0 8.49999C0 7.97997 0.425473 7.5545 0.945495 7.5545H9.45495V5.86206C9.45495 5.43659 9.96552 5.22858 10.2586 5.53114L12.8966 8.16907C13.0857 8.35817 13.0857 8.65127 12.8966 8.84037Z" fill="currentColor"/>
</svg>
