<svg width="17" height="17" viewBox="0 0 17 17"
    xmlns="http://www.w3.org/2000/svg">
    <path fill-rule="evenodd" clip-rule="evenodd" d="M0 8.5C0 3.7995 3.7995 0 8.5 0C13.2005 0 17 3.7995 17 8.5C17 13.2005 13.2005 17 8.5 17C3.7995 17 0 13.2005 0 8.5ZM7.65258 12.8215C7.65258 13.2903 8.03124 13.669 8.50005 13.669C8.96285 13.663 9.34752 13.2783 9.34752 12.8215V9.34748H12.8215C13.2903 9.34748 13.669 8.96882 13.669 8.50001C13.669 8.0312 13.2903 7.65254 12.8215 7.65254L9.34752 7.65254V4.17853C9.34752 3.70972 8.96886 3.33106 8.50005 3.33106C8.27521 3.33081 8.05951 3.42001 7.90052 3.579C7.74153 3.73799 7.65233 3.95369 7.65258 4.17853V7.65254H4.17857C3.95373 7.65229 3.73802 7.7415 3.57904 7.90048C3.42005 8.05947 3.33085 8.27517 3.3311 8.50001C3.3311 8.96882 3.70975 9.34748 4.17857 9.34748H7.65258L7.65258 12.8215Z" fill="currentColor"/>
</svg>
