<svg width="22" height="17" viewBox="0 0 22 17"
    xmlns="http://www.w3.org/2000/svg">
    <path fill-rule="evenodd" clip-rule="evenodd" d="M10.625 2.125H19.125C20.2938 2.125 21.25 3.08125 21.25 4.25V14.875C21.25 16.0438 20.2938 17 19.125 17H2.125C0.945625 17 0 16.0544 0 14.875L0.010625 2.125C0.010625 0.945625 0.945625 0 2.125 0H7.61812C8.18125 0 8.72313 0.223125 9.12687 0.626875L10.625 2.125ZM14.875 10.625H17C17.5844 10.625 18.0625 10.1469 18.0625 9.5625C18.0625 8.97812 17.5844 8.5 17 8.5H14.875V6.375C14.875 5.79063 14.3969 5.3125 13.8125 5.3125C13.2281 5.3125 12.75 5.79063 12.75 6.375V8.5H10.625C10.0406 8.5 9.5625 8.97812 9.5625 9.5625C9.5625 10.1469 10.0406 10.625 10.625 10.625H12.75V12.75C12.75 13.3344 13.2281 13.8125 13.8125 13.8125C14.3969 13.8125 14.875 13.3344 14.875 12.75V10.625Z" fill="currentColor"/>
</svg>
