<svg width="20" height="16" viewBox="0 0 20 16"
    xmlns="http://www.w3.org/2000/svg">
    <path fill-rule="evenodd" clip-rule="evenodd" d="M1.99001 0H17.99C18.99 0 19.49 0 19.74 0.249998C19.99 0.499994 19.99 0.999982 19.99 1.99995V2V14C19.99 15.1 19.09 16 17.99 16H3.99001H0L7.32578e-06 2C7.32578e-06 0.9 0.890007 0 1.99001 0ZM4.99001 12H14.99C15.54 12 15.99 11.55 15.99 11C15.99 10.45 15.54 10 14.99 10H4.99001C4.44001 10 3.99001 10.45 3.99001 11C3.99001 11.55 4.44001 12 4.99001 12ZM14.99 9H4.99001C4.44001 9 3.99001 8.55 3.99001 8C3.99001 7.45 4.44001 7 4.99001 7H14.99C15.54 7 15.99 7.45 15.99 8C15.99 8.55 15.54 9 14.99 9ZM4.99001 6H14.99C15.54 6 15.99 5.55 15.99 5C15.99 4.45 15.54 4 14.99 4H4.99001C4.44001 4 3.99001 4.45 3.99001 5C3.99001 5.55 4.44001 6 4.99001 6Z" fill="currentColor"/>
</svg>
